<REAPER_PROJECT 0.1 "6.31/win64" 1647534438
  RIPPLE 0
  GROUPOVERRIDE 0 0 0
  AUTOXFADE 1
  ENVATTACH 3
  POOLEDENVATTACH 0
  MIXERUIFLAGS 11 48
  PEAKGAIN 1
  FEEDBACK 0
  PANLAW 1
  PROJOFFS 0 0 0
  MAXPROJLEN 0 600
  GRID 3199 8 1 8 1 0 0 0
  TIMEMODE 1 5 -1 30 0 0 -1
  VIDEO_CONFIG 0 0 256
  PANMODE 3
  CURSOR 1.5
  ZOOM 29.248450538283 0 0
  VZOOMEX 6 0
  USE_REC_CFG 0
  RECMODE 1
  SMPTESYNC 0 30 100 40 1000 300 0 0 1 0 0
  LOOP 0
  LOOPGRAN 0 4
  RECORD_PATH "" ""
  <RECORD_CFG
    ZXZhdxgAAA==
  >
  <APPLYFX_CFG
  >
  RENDER_FILE ""
  RENDER_PATTERN ""
  RENDER_FMT 0 2 0
  RENDER_1X 0
  RENDER_RANGE 1 0 0 18 1000
  RENDER_RESAMPLE 3 0 1
  RENDER_ADDTOPROJ 0
  RENDER_STEMS 0
  RENDER_DITHER 0
  TIMELOCKMODE 1
  TEMPOENVLOCKMODE 1
  ITEMMIX 0
  DEFPITCHMODE 589824 0
  TAKELANE 1
  SAMPLERATE 44100 0 0
  <RENDER_CFG
    ZXZhdxgAAA==
  >
  LOCK 1
  <METRONOME 7 2
    VOL 3.981072 1.990536
    FREQ 800 1600 1
    BEATLEN 4
    SAMPLES "" ""
    PATTERN 2863311530 2863311529
  >
  GLOBAL_AUTO -1
  TEMPO 80 4 4
  PLAYRATE 1 0 0.25 4
  SELECTION 0 0
  SELECTION2 0 0
  MASTERAUTOMODE 0
  MASTERTRACKHEIGHT 0 0
  MASTERPEAKCOL 16576
  MASTERMUTESOLO 0
  MASTERTRACKVIEW 0 0.6667 0.5 0.5 -1 -1 -1 0 0 0 -1 -1 0
  MASTERHWOUT 0 0 1 0 0 0 0 -1
  MASTER_NCH 2 2
  MASTER_VOLUME 1 0 -1 -1 1
  MASTER_FX 1
  MASTER_SEL 0
  <MASTERPLAYSPEEDENV
    EGUID {157F5FB6-40FE-44E0-92DE-A7A0446E956F}
    ACT 0 -1
    VIS 0 1 1
    LANEHEIGHT 0 0
    ARM 0
    DEFSHAPE 0 -1 -1
  >
  <TEMPOENVEX
    EGUID {685A6A0F-3F93-4B85-A65C-7D8D8664396B}
    ACT 0 -1
    VIS 1 0 1
    LANEHEIGHT 0 0
    ARM 0
    DEFSHAPE 1 -1 -1
  >
  <PROJBAY
  >
  <TRACK {531BD01C-397E-4B7B-AFC3-AB4E1498890F}
    NAME "Ejerc1 Curso20-21"
    PEAKCOL 16576
    BEAT -1
    AUTOMODE 0
    VOLPAN 0.9622695792448 0 -1 -1 1
    MUTESOLO 0 0 0
    IPHASE 0
    PLAYOFFS 0 1
    ISBUS 0 0
    BUSCOMP 0 0 0 0 0
    SHOWINMIX 1 0.6667 0.5 1 0.5 -1 -1 -1
    FREEMODE 0
    SEL 1
    REC 1 4096 1 0 0 0 0
    VU 2
    TRACKHEIGHT 116 0 0 0 0 0
    INQ 0 0 0 0.5 100 0 0 100
    NCHAN 2
    FX 1
    TRACKID {531BD01C-397E-4B7B-AFC3-AB4E1498890F}
    PERF 0
    MIDIOUT -1
    MAINSEND 1 0
    <FXCHAIN
      WNDRECT 803 196 1019 619
      SHOW 0
      LASTSEL 0
      DOCKED 0
      BYPASS 0 0 0
      <VST "VSTi: MONSTER Piano (MonsterDAW) (32 out)" "MONSTER Piano.dll" 0 "" 1365277035<5653545160796B6D6F6E737465722070> ""
        a3lgUe5e7f4AAAAAIAAAAAEAAAAAAAAAAgAAAAAAAAAEAAAAAAAAAAgAAAAAAAAAEAAAAAAAAAAgAAAAAAAAAEAAAAAAAAAAgAAAAAAAAAAAAQAAAAAAAAACAAAAAAAA
        AAQAAAAAAAAACAAAAAAAAAAQAAAAAAAAACAAAAAAAAAAQAAAAAAAAACAAAAAAAAAAAABAAAAAAAAAAIAAAAAAAAABAAAAAAAAAAIAAAAAAAAABAAAAAAAAAAIAAAAAAA
        AABAAAAAAAAAAIAAAAAAAAAAAAEAAAAAAAAAAgAAAAAAAAAEAAAAAAAAAAgAAAAAAAAAEAAAAAAAAAAgAAAAAAAAAEAAAAAAAAAAgAAAAACvBAAAAQAAAAkAEAA=
        MTAgRGFuY2UgUGlhbm8ubXNlAIC7AACAuwAAAAAAAAAAAAABAAAAAQAAAIAAAACAAAAAAgAAAAAAAAAAAAAAAAAAAAAAAAAAAAAAAAAAAAEAAAABAAAAAABAQAQCAT3N
        zMw90P///wAAAAAAAAAAAAAAAAK4/DEAAAAAAQAAAAAAAAAAAAAAAAAAAAAAAAAAAAAAAAAAAAAAAAAAAAAAAAAAAAAAAAAAAAAAAAAAAAAAAAAAAAAAAAAAAAAAAAAA
        AAAAAAAAAAAAAAAAAAAAAAAAAAAAAAAAAAAAAAAAAAAAAAAAAAAAAAAAAAAAAAAAAAAAAAAAAAAAAAAAAAAAAAAAAAAAAAAAAAAAAAAAAAAAAAAAAAAAAAAAAAAAAAAA
        AAAAAAAAAAAAAAAAAAAAAAAAAAAAAAAAAAAAAAAAAAAAAAAAAAAAAAAAAAAAAAAAAAAAAAAAAAAAAAAAAAAAAAAAAAAAAAAAAAAAAAAAAAAAAAAAAAAAAAAAAAAAAAAA
        AAAAAAAAAAAAAAAAAAAAAAAAAAAAAAAAAAAAAAAAAAAAAAAAAAAAAAAAAAAAAAAAAAAAAAAAAAAAAAAAAAAAAAAAAAAAAAAAAAAAAAAAAAAAAAAAAAAAAAAAAAAAAAAA
        AAAAAAAAAAAAAAAAAAAAAAAAAAAAAAAAAAAAAAAAAAAAAAAAAAAAAAAAAAAAAAAAAAAAAAAAAAAAAAAAAAAAAAAAAAAAAAAAAAAAAAAAAAAAAAAAAAAAAAAAAAAAAAAA
        AAAAAAAAAAAAAAAAAAAAAAAAAAAAAAAAAAAAAAAAAAAAAAABAAAAAAAAAAAAAAAAAAAAAAAAAAEAAAAAAAAAAAAAAH8AAAAAAAAAbxIDPAAAAAAAAABABAKBPAAAAAB/
        AAAAfwAAAAAAAAAAAAAAAAAAAAAAAAAAAAAAAAAAAAAAAAABAAAAAAAAAAAAAAAAAAAAAAAAAAAAAAAAAAAAAAAAAAAAAAAAAAAAAAAAAAAAAAAAAAAAAAAAAAAAAAAA
        AAAAAAAAAAAAAAAAAAAAAAAAAAAAAAAAAAAAAAAAAAAAAAAAAAAAAAAAAAAAAAAAAAAAAAAAAAAAAAAAAAAAAAAAAAAAAAAAAAAAAAAAAAAAAAAAAAAAAAAAAAAAAAAA
        AAAAAAAAAAAAAAAAAAAAAAAAAAAAAAAAAAAAAAAAAAAAAAAAAAAAAAAAAAAAAAAAAAAAAAAAAAAAAAAAAAAAAAAAAAAAAAAAAAAAAAAAAAAAAAAAAAAAAAAAAAAAAAAA
        AAAAAAAAAAAAAAAAAAAAAAAAAAAAAAAAAAAAAAAAAAAAAAAAAAAAAAAAAAAAAAAAAAAAAAAAAAAAAAAAAAAAAAAAAAAAAAAAAAAAAAAAAAAAAAAAAAAAAAAAAAAAAAAA
        AAAAAAAAAAAAAAAAAAAAAAAAAAAAAAAAAAAAAAAAAAAAAAAAAAAAAAAAAAAAAAAAAAAAAAAAAAAAAAAAAAAAAAAAAAAAAAAAAAAAAAAAAAAAAAAAAAAAAAAAAAAAAAAA
        AAAAAAAAAAAAAAAAAAAAAAAAAAAAAAAAAAAAAAAAAAAAAAAAAAAAAAAAAAAAAAA=
        ADEwIERhbmNlIFBpYW5vABAAAAA=
      >
      PRESETNAME "10 Dance Piano"
      FLOATPOS 0 0 0 0
      FXID {5789048A-7371-47EF-AFCE-EB892C3B8C15}
      <PARMENV 0 0 1 0.5
        EGUID {C467B9CD-EAD4-4427-AA97-8CA647C3C45B}
        ACT 1 -1
        VIS 0 1 1
        LANEHEIGHT 0 0
        ARM 1
        DEFSHAPE 0 -1 -1
        PT 0 0.004 0
        PT 5.437499 0.004 0 0 1
        PT 5.438 0 0
      >
      WAK 0 0
    >
    <ITEM
      POSITION 0
      SNAPOFFS 0
      LENGTH 12
      LOOP 0
      ALLTAKES 0
      FADEIN 1 0 0 1 0 0 0
      FADEOUT 1 0 0 1 0 0 0
      MUTE 0 0
      SEL 1
      IGUID {BD06234F-12D6-4740-BEF4-912DE617EDAC}
      IID 20
      NAME "Ejerc1 Curso20-21 - comienzoNavidad.mid"
      VOLPAN 1 0 1 -1
      SOFFS 0 0
      PLAYRATE 1 1 0 -1 0 0.0025
      CHANMODE 0
      GUID {93100D89-903F-40D8-B723-9FE10A6393BB}
      <SOURCE MIDI
        HASDATA 1 960 QN
        CCINTERP 32
        POOLEDEVTS {C388C334-1B89-436C-85C0-4FE322798DBD}
        <X 0 0 0 0 3 "Ejerc1 Curso20-21"
          /wNFamVyYzEgQ3Vyc28yMC0yMQ==
        >
        <X 0 0 0 0 3 Piano
          /wNQaWFubw==
        >
        E 15360 b0 7b 00
        CCINTERP 32
        CHASE_CC_TAKEOFFS 1
        GUID {95AA2755-D73F-471E-AD02-28E86190B44A}
        IGNTEMPO 0 120 4 4
        SRCCOLOR 53
        VELLANE -1 100 0
        CFGEDITVIEW -61.707029 0.202439 40 31 0 -1 0 0 0 0.5
        KEYSNAP 0
        TRACKSEL 0
        EVTFILTER 0 -1 -1 -1 -1 0 0 0 0 -1 -1 -1 -1 0 -1 0 -1 -1
        CFGEDIT 1 1 0 1 0 0 1 1 1 1 1 0.25 0 54 1128 538 0 0 0 0 0 0 0 1 0 0.5 0 0 1 64
      >
      TAKE SEL
      NAME "01-Ejerc1 Curso20-21-Recorded MIDI"
      TAKEVOLPAN 0 1 -1
      SOFFS 0 0
      PLAYRATE 1 1 0 -1 0 0.0025
      CHANMODE 0
      TAKECOLOR 33533307 R
      GUID {B64753CA-BA22-42F8-98C4-0BBC7466B00A}
      RECPASS 10
      <SOURCE MIDI
        HASDATA 1 960 QN
        CCINTERP 32
        POOLEDEVTS {9EDD6CB7-3E65-417B-9ABD-1F9AD67B9445}
        E 0 90 53 53
        E 240 80 53 00
        E 240 90 53 5a
        E 240 80 53 00
        E 240 90 53 4e
        E 720 80 53 00
        E 240 90 53 5a
        E 240 80 53 00
        E 231 90 53 4a
        E 249 80 53 00
        E 240 90 53 49
        E 720 80 53 00
        E 240 90 53 5b
        E 480 80 53 00
        E 0 90 56 3e
        E 480 80 56 00
        E 0 90 4f 56
        E 480 80 4f 00
        E 0 90 51 67
        E 480 80 51 00
        E 0 90 53 63
        E 1680 80 53 00
        E 240 90 54 5b
        E 240 80 54 00
        E 240 90 54 5c
        E 234 80 54 00
        E 219 90 54 62
        E 747 80 54 00
        E 240 90 54 67
        E 240 80 54 00
        E 206 90 53 4b
        E 274 80 53 00
        E 240 90 53 54
        E 720 80 53 00
        E 240 90 53 60
        E 240 80 53 00
        E 240 90 51 43
        E 240 80 51 00
        E 240 90 51 58
        E 240 80 51 00
        E 240 90 53 58
        E 240 80 53 00
        E 240 90 51 46
        E 720 80 51 00
        e 240 90 56 60
        e 720 80 56 00
        E 240 b0 7b 00
        CCINTERP 32
        CHASE_CC_TAKEOFFS 1
        GUID {E4712F9F-4409-43CB-A2F0-A509A5AB5F55}
        IGNTEMPO 0 120 4 4
        SRCCOLOR 106
        VELLANE -1 100 0
        CFGEDITVIEW -410.106491 0.093956 38 50 0 -1 0 0 0 0.5
        KEYSNAP 0
        TRACKSEL 0
        EVTFILTER 0 -1 -1 -1 -1 0 0 0 0 -1 -1 -1 -1 0 -1 0 -1 -1
        CFGEDIT 1 1 0 1 0 0 1 1 1 1 1 0.25 0 54 1128 538 0 0 0 0 0 0 0 1 0 0.5 0 0 1 64
      >
    >
    <ITEM
      POSITION 332.25
      SNAPOFFS 0
      LENGTH 10.18828125
      LOOP 1
      ALLTAKES 0
      FADEIN 1 0 0 1 0 0 0
      FADEOUT 1 0 0 1 0 0 0
      MUTE 0 0
      SEL 0
      IGUID {DD25BBDE-DF59-405B-A473-BBE5FB486BF0}
      IID 12
      VOLPAN 1
      TAKE NULL
      TAKE
      NAME "01-Ejerc1 Curso20-21-Recorded MIDI"
      TAKEVOLPAN 0 1 -1
      SOFFS 332.25 443
      PLAYRATE 1 1 0 -1 0 0.0025
      CHANMODE 0
      TAKECOLOR 21352916 R
      GUID {3136AD90-8310-421C-B7FA-7E577FFD82D5}
      RECPASS 3
      <SOURCE MIDI
        HASDATA 1 960 QN
        CCINTERP 32
        POOLEDEVTS {8D4776C6-C76E-459F-B824-8712288BD5E7}
        E 53 90 3b 50
        E 91 80 3b 00
        E 139 90 3b 6b
        E 95 80 3b 00
        E 154 90 3c 5f
        E 108 80 3c 00
        E 122 90 3b 66
        E 104 80 3b 00
        E 128 90 3b 5d
        E 106 80 3b 00
        E 147 90 3b 60
        E 89 80 3b 00
        E 145 90 3c 59
        E 92 80 3c 00
        E 180 90 3e 62
        E 11 90 40 54
        E 99 80 40 00
        E 206 80 3e 00
        E 159 90 40 7b
        E 351 80 40 00
        E 950 90 37 7f
        E 5 90 39 71
        E 12 90 3e 7f
        E 0 90 40 7f
        E 1 90 3c 66
        E 20 90 43 43
        E 15 80 40 00
        E 51 90 35 28
        E 49 80 43 00
        E 58 80 35 00
        E 13 80 3c 00
        E 5 80 39 00
        E 2 80 3e 00
        E 6 80 37 00
        E 5610 90 3c 35
        E 15 90 40 48
        E 5 90 43 4b
        E 1022 80 40 00
        E 6 80 43 00
        E 24 80 3c 00
        E 690 90 45 67
        E 20 90 3e 34
        E 0 90 42 34
        E 4 90 41 41
        E 3 80 42 00
        E 916 80 41 00
        E 3 80 45 00
        E 45 80 3e 00
        E 1854 90 46 58
        E 6 90 42 52
        E 47 90 40 2e
        E 0 90 48 53
        E 38 90 41 21
        E 608 80 41 00
        E 67 80 46 00
        E 0 80 42 00
        E 9 80 40 00
        E 5 80 48 00
        E 1529 90 46 57
        E 3 90 44 48
        E 354 90 40 06
        E 163 90 48 01
        E 180 80 48 00
        E 2 80 44 00
        E 3 80 46 00
        E 46 80 40 00
        E 1153 90 40 01
        E 589 90 44 49
        E 23 90 47 67
        E 690 80 40 00
        E 19 80 44 00
        E 13 80 47 00
        E 352 90 44 58
        E 31 90 40 32
        E 5 90 47 53
        E 268 80 47 00
        E 11 80 44 00
        E 25 80 40 00
        E 2395 90 40 6b
        E 2 90 43 71
        E 3 90 3c 75
        E 768 80 40 00
        E 54 80 43 00
        E 44 80 3c 00
        E 710 90 3e 4b
        E 6 90 3c 4e
        E 6 90 41 36
        E 0 90 45 46
        E 111 80 3c 00
        E 1029 80 41 00
        E 33 80 45 00
        E 3 80 3e 00
        E 1422 90 43 4c
        E 33 80 43 00
        E 227 90 3c 63
        E 22 90 43 4b
        E 35 80 43 00
        E 22 80 3c 00
        E 190 90 3c 4d
        E 5 90 43 43
        E 6 90 40 3d
        E 37 80 40 00
        E 6 80 3c 00
        E 4 80 43 00
        E 167 90 43 5a
        E 13 90 40 52
        E 50 80 40 00
        E 16 80 43 00
        E 183 90 43 63
        E 16 90 40 5e
        E 51 80 40 00
        E 17 80 43 00
        E 163 90 43 56
        E 68 80 43 00
        E 158 90 43 60
        E 10 90 3c 4b
        E 7 90 40 55
        E 45 80 40 00
        E 19 80 3c 00
        E 5 80 43 00
        E 162 90 43 57
        E 11 90 3c 39
        E 0 90 40 4f
        E 48 80 40 00
        E 9 80 3c 00
        E 3 80 43 00
        E 169 90 43 59
        E 9 90 3c 4b
        E 5 90 40 4f
        E 48 80 40 00
        E 15 80 3c 00
        E 4 80 43 00
        E 160 90 43 5d
        E 9 90 3c 4d
        E 3 90 40 5b
        E 56 80 40 00
        E 8 80 3c 00
        E 10 80 43 00
        E 165 90 43 5e
        E 15 90 40 5e
        E 4 90 3c 41
        E 52 80 3c 00
        E 0 80 40 00
        E 16 80 43 00
        E 198 90 42 7d
        E 7 90 45 6b
        E 2 90 3e 63
        E 52 80 42 00
        E 18 80 45 00
        E 13 80 3e 00
        E 154 90 3c 5d
        E 5 90 3e 54
        E 13 90 43 52
        E 44 80 43 00
        E 9 80 3e 00
        E 6 80 3c 00
        E 451 90 40 6a
        E 9 90 3c 50
        E 42 80 40 00
        E 4 80 3c 00
        E 190 90 43 46
        E 4 90 40 45
        E 47 80 40 00
        E 12 80 43 00
        E 1901 90 3c 71
        E 5 90 40 6d
        E 3 90 43 66
        E 66 80 43 00
        E 0 80 40 00
        E 8 80 3c 00
        E 137 90 3c 67
        E 6 90 43 63
        E 1 90 40 5f
        E 65 80 43 00
        E 1 80 40 00
        E 7 80 3c 00
        E 168 90 3c 66
        E 4 90 40 5e
        E 4 90 43 59
        E 67 80 43 00
        E 2 80 40 00
        E 3 80 3c 00
        E 133 90 3c 62
        E 3 90 40 5e
        E 1 90 43 5f
        E 81 80 3c 00
        E 0 80 40 00
        E 3 80 43 00
        E 170 90 3c 63
        E 3 90 40 5c
        E 8 90 43 54
        E 66 80 43 00
        E 1 80 40 00
        E 1 80 3c 00
        E 149 90 3c 63
        E 0 90 40 63
        E 4 90 43 5e
        E 79 80 43 00
        E 2 80 3c 00
        E 3 80 40 00
        E 649 90 41 4b
        E 5 90 3e 37
        E 5 90 45 3c
        E 42 80 45 00
        E 3 80 3e 00
        E 0 80 41 00
        E 477 90 3e 66
        E 11 90 41 48
        E 62 80 41 00
        E 15 80 3e 00
        E 371 90 41 71
        E 2 90 3e 6a
        E 5 90 45 64
        E 103 80 3e 00
        E 2 80 41 00
        E 7 80 45 00
        E 354 90 3e 58
        E 0 90 41 5b
        E 2 90 45 58
        E 107 80 45 00
        E 1 80 3e 00
        E 0 80 41 00
        E 361 90 3c 6a
        E 10 90 40 56
        E 1 90 43 57
        E 73 80 40 00
        E 3 80 43 00
        E 3 80 3c 00
        E 135 90 3c 5c
        E 6 90 40 59
        E 6 90 43 4a
        E 82 80 43 00
        E 3 80 3c 00
        E 1 80 40 00
        E 143 90 40 55
        E 3 90 3c 53
        E 7 90 43 43
        E 85 80 43 00
        E 5 80 40 00
        E 1 80 3c 00
        E 139 90 3c 50
        E 0 90 40 50
        E 10 90 43 3d
        E 83 80 40 00
        E 1 80 3c 00
        E 0 80 43 00
        E 148 90 43 4b
        E 3 90 40 52
        E 2 90 3c 4e
        E 95 80 3c 00
        E 4 80 40 00
        E 16 80 43 00
        E 118 90 43 4b
        E 7 90 40 58
        E 5 90 3c 53
        E 97 80 3c 00
        E 4 80 40 00
        E 12 80 43 00
        E 570 90 41 63
        E 2 90 45 60
        E 15 90 3e 3e
        E 86 80 3e 00
        E 8 80 41 00
        E 4 80 45 00
        E 314 90 3e 4a
        E 3 90 45 3c
        E 2 90 41 52
        E 129 80 3e 00
        E 2 80 41 00
        E 6 80 45 00
        E 351 90 47 63
        E 12 90 43 54
        E 10 90 40 41
        E 97 80 40 00
        E 2 80 43 00
        E 26 80 47 00
        E 364 90 47 28
        E 13 90 43 37
        E 8 90 40 26
        E 108 80 40 00
        E 9 80 43 00
        E 7 80 47 00
        E 363 90 3e 63
        E 92 80 3e 00
        E 131 90 3e 57
        E 10 90 41 55
        E 3 90 45 40
        E 85 80 41 00
        E 1 80 45 00
        E 2 80 3e 00
        E 143 90 41 4f
        E 8 90 3e 40
        E 2 90 45 3e
        E 93 80 3e 00
        E 2 80 41 00
        E 1 80 45 00
        E 143 90 3e 4f
        E 1 90 41 53
        E 9 90 45 3a
        E 91 80 45 00
        E 3 80 3e 00
        E 0 80 41 00
        E 137 90 3e 55
        E 1 90 41 56
        E 5 90 45 42
        E 90 80 45 00
        E 0 80 3e 00
        E 2 80 41 00
        E 160 90 43 4d
        E 3 90 40 4b
        E 2 90 47 42
        E 87 80 47 00
        E 1 80 40 00
        E 1 80 43 00
        E 137 90 43 5a
        E 3 90 40 4b
        E 11 90 47 48
        E 79 80 40 00
        E 2 80 47 00
        E 1 80 43 00
        E 153 90 40 2a
        E 47 80 40 00
        E 473 90 41 5e
        E 10 90 45 51
        E 5 90 48 31
        E 69 80 45 00
        E 7 80 41 00
        E 17 80 48 00
        E 110 90 41 3b
        E 8 90 48 2a
        E 4 90 45 55
        E 92 80 45 00
        E 6 80 41 00
        E 8 80 48 00
        E 131 90 41 3d
        E 2 90 45 55
        E 2 90 48 2e
        E 87 80 45 00
        E 9 80 41 00
        E 2 80 48 00
        E 138 90 41 43
        E 1 90 45 63
        E 9 90 48 3f
        E 96 80 41 00
        E 2 80 48 00
        E 6 80 45 00
        E 135 90 45 52
        E 1 90 41 4e
        E 10 90 48 44
        E 100 80 41 00
        E 2 80 45 00
        E 9 80 48 00
        E 108 90 48 30
        E 3 90 45 4c
        E 3 90 41 42
        E 102 80 45 00
        E 5 80 41 00
        E 2 80 48 00
        E 192 90 40 59
        E 2 90 43 59
        E 2 90 47 58
        E 70 80 40 00
        E 0 80 43 00
        E 6 80 47 00
        E 652 90 47 25
        E 60 80 47 00
        E 183 90 43 48
        E 7 90 47 30
        E 14 90 40 26
        E 46 80 40 00
        E 9 80 43 00
        E 3 80 47 00
        E 165 90 43 2f
        E 15 90 47 21
        E 60 80 47 00
        E 3 80 43 00
        E 170 90 40 51
        E 14 90 43 24
        E 78 80 43 00
        E 2 80 40 00
        E 140 90 43 56
        E 11 90 40 30
        E 2 90 47 41
        E 103 80 40 00
        E 2 80 47 00
        E 2 80 43 00
        E 127 90 43 50
        E 9 90 47 43
        E 2 90 40 37
        E 110 80 40 00
        E 7 80 43 00
        E 5 80 47 00
        E 137 90 43 49
        E 0 90 40 46
        E 9 90 47 31
        E 112 80 40 00
        E 3 80 43 00
        E 5 80 47 00
        E 382 90 41 28
        E 0 90 45 46
        E 8 90 47 26
        E 2 90 43 32
        E 107 80 43 00
        E 9 80 45 00
        E 12 80 47 00
        E 2 80 41 00
        E 342 90 41 44
        E 21 90 45 52
        E 10 90 47 2d
        E 0 90 43 5a
        E 115 80 47 00
        E 2 80 43 00
        E 15 80 45 00
        E 12 80 41 00
        E 302 90 48 3e
        E 11 90 41 28
        E 10 90 45 53
        E 6 90 47 53
        E 3 90 43 27
        E 137 80 47 00
        E 108 80 43 00
        E 22 80 41 00
        E 15 80 45 00
        E 29 80 48 00
        E 85 90 48 25
        E 7 90 45 59
        E 16 90 41 43
        E 31 90 43 24
        E 238 80 43 00
        E 363 80 45 00
        E 10 80 41 00
        E 2 80 48 00
        E 364 90 40 60
        E 10 90 43 59
        E 6 90 47 4d
        E 93 80 47 00
        E 1 80 40 00
        E 0 80 43 00
        E 146 90 43 45
        E 8 90 40 35
        E 5 90 41 28
        E 44 80 41 00
        E 2 80 40 00
        E 1 80 43 00
        E 178 90 40 2f
        E 17 90 43 26
        E 41 80 43 00
        E 4 80 40 00
        E 381 90 43 54
        E 1 90 40 59
        E 11 90 47 4d
        E 91 80 40 00
        E 1 80 47 00
        E 2 80 43 00
        E 131 90 43 54
        E 1 90 40 59
        E 8 90 47 4e
        E 97 80 40 00
        E 4 80 43 00
        E 1 80 47 00
        E 136 90 40 52
        E 0 90 43 52
        E 8 90 47 44
        E 119 80 43 00
        E 0 80 47 00
        E 1 80 40 00
        E 422 90 39 57
        E 1 90 37 43
        E 37 90 35 1f
        E 24 90 34 1b
        E 317 80 39 00
        E 19 80 37 00
        E 2 80 35 00
        E 17 80 34 00
        E 62 90 3b 57
        E 3 90 3c 55
        E 2 90 39 55
        E 3 90 40 49
        E 6 90 3e 44
        E 170 80 3e 00
        E 77 80 39 00
        E 12 80 40 00
        E 24 80 3b 00
        E 30 80 3c 00
        E 207 90 39 1a
        E 5 90 37 17
        E 181 80 37 00
        E 2 80 39 00
        E 840 90 3c 3e
        E 26 90 41 25
        E 5 90 3e 2b
        E 7 90 40 27
        E 40 80 40 00
        E 2 80 3e 00
        E 16 80 3c 00
        E 1 80 41 00
        E 125 90 3c 4f
        E 12 90 3e 46
        E 3 90 41 2c
        E 3 90 40 3a
        E 58 80 40 00
        E 4 80 3e 00
        E 11 80 3c 00
        E 1 80 41 00
        E 146 90 3c 4c
        E 34 90 41 1e
        E 59 80 3c 00
        E 6 80 41 00
        E 137 90 40 4c
        E 5 90 3c 3e
        E 98 80 3c 00
        E 6 80 40 00
        E 150 90 3c 4e
        E 21 90 40 28
        E 49 80 40 00
        E 12 80 3c 00
        E 149 90 3c 4e
        E 2 90 40 50
        E 91 80 3c 00
        E 5 80 40 00
        E 149 90 40 58
        E 16 90 3c 47
        E 94 80 3c 00
        E 17 80 40 00
        E 121 90 40 35
        E 25 90 3c 27
        E 59 80 3c 00
        E 18 80 40 00
        E 123 90 40 53
        E 27 90 3c 32
        E 6 90 43 52
        E 64 80 43 00
        E 13 80 3c 00
        E 12 80 40 00
        E 162 90 3c 3d
        E 1 90 40 32
        E 58 80 40 00
        E 5 80 3c 00
        E 132 90 41 5c
        E 2 90 3c 30
        E 7 90 40 42
        E 79 80 40 00
        E 2 80 3c 00
        E 29 80 41 00
        E 120 90 41 28
        E 23 90 40 2e
        E 86 80 40 00
        E 20 80 41 00
        E 99 90 3c 4c
        E 1 90 40 2c
        E 0 90 41 28
        E 117 80 3c 00
        E 15 80 40 00
        E 10 80 41 00
        E 94 90 40 45
        E 3 90 41 34
        E 2 90 3c 47
        E 114 80 3c 00
        E 7 80 40 00
        E 3 80 41 00
        E 102 90 40 4a
        E 3 90 3c 4d
        E 4 90 41 33
        E 106 80 3c 00
        E 7 80 40 00
        E 4 80 41 00
        E 121 90 40 45
        E 1 90 3c 4b
        E 11 90 41 28
        E 79 80 41 00
        E 6 80 40 00
        E 3 80 3c 00
        E 172 90 3e 25
        E 3 90 3c 25
        E 43 80 3c 00
        E 1 80 3e 00
        E 162 90 40 49
        E 19 90 43 28
        E 5 90 3c 25
        E 52 80 3c 00
        E 10 80 43 00
        E 3 80 40 00
        E 120 90 40 56
        E 8 90 43 50
        E 15 90 3c 49
        E 8 90 3e 32
        E 75 80 3e 00
        E 5 80 3c 00
        E 21 80 40 00
        E 10 80 43 00
        E 113 90 40 53
        E 6 90 43 3d
        E 10 90 3c 46
        E 107 80 3c 00
        E 6 80 40 00
        E 5 80 43 00
        E 97 90 40 47
        E 2 90 3c 49
        E 8 90 43 2f
        E 105 80 3c 00
        E 4 80 40 00
        E 1 80 43 00
        E 104 90 40 51
        E 1 90 3c 53
        E 12 90 43 3b
        E 101 80 43 00
        E 3 80 40 00
        E 8 80 3c 00
        E 117 90 40 49
        E 13 90 43 38
        E 1 90 3c 30
        E 98 80 43 00
        E 4 80 3c 00
        E 0 80 40 00
        E 357 90 41 5a
        E 2 90 3e 56
        E 112 80 3e 00
        E 6 80 41 00
        E 121 90 41 4e
        E 2 90 3e 54
        E 12 90 45 4a
        E 109 80 3e 00
        E 7 80 45 00
        E 4 80 41 00
        E 91 90 41 50
        E 6 90 45 52
        E 1 90 3e 55
        E 124 80 3e 00
        E 7 80 41 00
        E 6 80 45 00
        E 95 90 41 52
        E 3 90 3e 58
        E 4 90 45 42
        E 120 80 3e 00
        E 3 80 41 00
        E 1 80 45 00
        E 102 90 41 4e
        E 4 90 3e 42
        E 2 90 45 3e
        E 104 80 3e 00
        E 5 80 41 00
        E 6 80 45 00
        E 117 90 41 3f
        E 6 90 3e 33
        E 0 90 45 28
        E 101 80 3e 00
        E 1 80 41 00
        E 3 80 45 00
        E 104 90 3e 44
        E 2 90 41 42
        E 10 90 45 2a
        E 88 80 45 00
        E 2 80 3e 00
        E 0 80 41 00
        E 609 90 40 52
        E 6 90 43 4b
        E 110 80 43 00
        E 8 80 40 00
        E 156 90 40 23
        E 18 90 45 38
        E 71 80 45 00
        E 1 80 40 00
        E 126 90 40 41
        E 23 90 43 2c
        E 1 90 45 3a
        E 82 80 43 00
        E 18 80 40 00
        E 13 80 45 00
        E 100 90 40 4c
        E 3 90 45 3d
        E 26 90 43 34
        E 95 80 43 00
        E 12 80 40 00
        E 25 80 45 00
        E 82 90 45 28
        E 6 90 40 52
        E 6 90 43 55
        E 126 80 40 00
        E 6 80 43 00
        E 20 80 45 00
        E 89 90 45 35
        E 3 90 40 5a
        E 1 90 43 4f
        E 112 80 40 00
        E 5 80 43 00
        E 14 80 45 00
        E 98 90 43 4f
        E 0 90 45 44
        E 1 90 40 5f
        E 119 80 40 00
        E 7 80 43 00
        E 3 80 45 00
        E 109 90 35 6b
        E 1 90 37 61
        E 1 90 34 55
        E 28 90 39 27
        E 154 80 34 00
        E 3 80 35 00
        E 2 80 37 00
        E 1 80 39 00
        E 72 90 45 71
        E 1 90 40 77
        E 6 90 43 63
        E 6 90 41 60
        E 87 80 41 00
        E 10 80 40 00
        E 0 80 43 00
        E 8 80 45 00
        E 123 90 35 76
        E 1 90 37 7d
        E 2 90 39 67
        E 171 80 39 00
        E 6 80 37 00
        E 2 80 35 00
        E 47 90 45 60
        E 3 90 40 64
        E 7 90 43 48
        E 16 90 41 5a
        E 85 80 41 00
        E 26 80 40 00
        E 12 80 43 00
        E 0 80 45 00
        E 117 90 35 72
        E 0 90 37 7f
        E 0 90 39 6e
        E 12 90 34 46
        E 136 80 34 00
        E 40 80 35 00
        E 19 80 37 00
        E 5 80 39 00
        E 19 90 43 6f
        E 2 90 45 66
        E 1 90 40 69
        E 168 80 40 00
        E 8 80 45 00
        E 11 80 43 00
        E 46 90 35 79
        E 1 90 37 7f
        E 4 90 39 71
        E 7 90 34 42
        E 231 90 45 7b
        E 3 90 3f 73
        E 5 90 3c 61
        E 1 90 41 66
        E 2 90 43 64
        E 25 80 43 00
        E 25 90 40 15
        E 37 90 43 1b
        E 159 80 3f 00
        E 39 80 34 00
        E 0 80 35 00
        E 12 80 37 00
        E 9 80 39 00
        E 30 80 3c 00
        E 16 80 43 00
        E 18 80 41 00
        E 14 80 45 00
        E 23 80 40 00
        E 1114 90 39 23
        E 14 90 37 0a
        E 37 90 3b 22
        E 3 90 3e 4c
        E 9 90 41 42
        E 2 90 40 4d
        E 101 90 3c 29
        E 31 80 37 00
        E 4 80 41 00
        E 6 80 40 00
        E 69 80 3e 00
        E 19 80 39 00
        E 54 80 3c 00
        E 36 80 3b 00
        E 7 90 37 50
        E 8 90 3e 59
        E 15 90 40 3f
        E 0 90 41 39
        E 10 90 43 25
        E 13 90 39 47
        E 9 90 35 14
        E 86 80 43 00
        E 41 90 3c 3a
        E 3 80 41 00
        E 1 90 3b 4b
        E 18 80 40 00
        E 10 80 35 00
        E 25 80 37 00
        E 24 80 39 00
        E 54 80 3e 00
        E 19 80 3c 00
        E 54 80 3b 00
        E 41 90 37 4a
        E 14 90 3e 3c
        E 14 90 40 1e
        E 14 90 39 3b
        E 62 90 3c 53
        E 21 90 3b 4e
        E 7 80 40 00
        E 67 80 37 00
        E 17 80 3e 00
        E 4 80 3c 00
        E 17 80 39 00
        E 34 80 3b 00
        E 6540 90 3b 0a
        E 336 90 3e 13
        E 237 90 39 51
        E 44 80 3b 00
        E 0 80 3e 00
        E 262 80 39 00
        E 515 90 3e 11
        E 136 90 3b 11
        E 252 90 39 24
        E 275 80 3e 00
        E 4 80 3b 00
        E 72 80 39 00
        E 633 90 3b 0c
        E 90 90 3e 0a
        E 179 90 39 25
        E 272 80 3b 00
        E 105 80 3e 00
        E 82 80 39 00
        E 619 90 3b 14
        E 289 90 39 26
        E 253 80 3b 00
        E 31 90 3e 16
        E 151 80 39 00
        E 239 80 3e 00
        E 227 90 3b 2b
        E 328 90 39 3c
        E 266 80 3b 00
        E 141 80 39 00
        E 464 90 3e 17
        E 229 90 3b 21
        E 92 90 39 4a
        E 99 80 3e 00
        E 129 80 3b 00
        E 47 80 39 00
        E 361353 b0 7b 00
        CCINTERP 32
        CHASE_CC_TAKEOFFS 1
        GUID {E5ECE858-54C8-44B6-8932-B3D2CDCBD5CC}
        IGNTEMPO 0 120 4 4
        SRCCOLOR 30
        VELLANE -1 100 0
      >
      TAKE SEL
      NAME "01-Ejerc1 Curso20-21-Recorded MIDI"
      TAKEVOLPAN 0 1 -1
      SOFFS 0 0
      PLAYRATE 1 1 0 -1 0 0.0025
      CHANMODE 0
      TAKECOLOR 18770869 R
      GUID {31C255A1-9E44-4570-9527-0EE3146CE3FC}
      RECPASS 4
      <SOURCE MIDI
        HASDATA 1 960 QN
        CCINTERP 32
        POOLEDEVTS {A60DD217-8304-4D79-BE0D-5E30F9B2486E}
        E 225 90 32 20
        E 225 80 32 00
        E 300 90 40 62
        E 113 80 40 00
        E 115 90 40 6d
        E 80 90 32 28
        E 25 80 40 00
        E 145 90 40 6e
        E 216 80 32 00
        E 213 80 40 00
        E 111 90 40 6d
        E 12 90 32 40
        E 131 80 40 00
        E 149 90 40 64
        E 20 80 32 00
        E 120 80 40 00
        E 131 90 40 76
        E 36 90 32 31
        E 247 80 32 00
        E 168 80 40 00
        E 154 90 40 75
        E 51 90 32 4c
        E 200 90 43 32
        E 59 80 40 00
        E 32 80 32 00
        E 98 80 43 00
        E 189 90 3c 50
        E 19 90 32 48
        E 276 80 32 00
        E 112 80 3c 00
        E 9 90 3e 5f
        E 165 90 40 7f
        E 53 80 3e 00
        E 19 90 30 22
        E 275 80 30 00
        E 334 90 30 36
        E 272 80 30 00
        E 2 80 40 00
        E 222 90 41 7f
        E 100 90 30 36
        E 46 80 41 00
        E 96 90 41 72
        E 134 80 30 00
        E 1 80 41 00
        E 121 90 41 76
        E 213 90 30 28
        E 82 80 41 00
        E 190 80 30 00
        E 78 90 41 72
        E 216 90 40 62
        E 1 80 41 00
        E 11 90 32 39
        E 152 80 40 00
        E 67 80 32 00
        E 76 90 40 75
        E 327 80 40 00
        E 2 90 32 56
        E 202 90 40 47
        E 45 80 32 00
        E 108 80 40 00
        E 110 90 40 71
        E 160 90 32 6f
        E 60 80 40 00
        E 246 80 32 00
        E 210 90 40 72
        E 149 90 32 52
        E 8 80 40 00
        E 95 90 3e 62
        E 110 80 3e 00
        E 11 80 32 00
        E 130 90 3e 69
        E 144 80 3e 00
        E 107 90 40 71
        E 60 90 34 52
        E 130 80 40 00
        E 88 90 3e 63
        E 14 80 34 00
        E 326 90 33 33
        E 200 80 3e 00
        E 95 90 43 37
        E 29 80 33 00
        E 319 90 32 0b
        E 168 80 43 00
        E 78 80 32 00
        E 372 90 32 4c
        E 277 80 32 00
        E 1754 b0 7b 00
        CCINTERP 32
        CHASE_CC_TAKEOFFS 1
        GUID {C3CE058D-1D57-46C9-A42E-982D5586FEF0}
        IGNTEMPO 0 120 4 4
        SRCCOLOR 32
        VELLANE -1 100 0
      >
    >
    <ITEM
      POSITION 342.43828125
      SNAPOFFS 0
      LENGTH 2.7796875
      LOOP 1
      ALLTAKES 0
      FADEIN 1 0 0 1 0 0 0
      FADEOUT 1 0.01 0 1 0 0 0
      MUTE 0 0
      SEL 0
      IGUID {EB1ED7C7-4612-4908-B4F6-19ADC0E74118}
      IID 13
      VOLPAN 1
      TAKE NULL
      TAKE SEL
      NAME "01-Ejerc1 Curso20-21-Recorded MIDI"
      TAKEVOLPAN 0 1 -1
      SOFFS 342.43828125 456.584375
      PLAYRATE 1 1 0 -1 0 0.0025
      CHANMODE 0
      TAKECOLOR 21352916 R
      GUID {712CEB1F-CEB6-48DB-BB3C-1F36BCE02BF8}
      RECPASS 3
      <SOURCE MIDI
        HASDATA 1 960 QN
        CCINTERP 32
        POOLEDEVTS {AD113392-629C-4D08-8DD8-1904A9504BE8}
        E 53 90 3b 50
        E 91 80 3b 00
        E 139 90 3b 6b
        E 95 80 3b 00
        E 154 90 3c 5f
        E 108 80 3c 00
        E 122 90 3b 66
        E 104 80 3b 00
        E 128 90 3b 5d
        E 106 80 3b 00
        E 147 90 3b 60
        E 89 80 3b 00
        E 145 90 3c 59
        E 92 80 3c 00
        E 180 90 3e 62
        E 11 90 40 54
        E 99 80 40 00
        E 206 80 3e 00
        E 159 90 40 7b
        E 351 80 40 00
        E 950 90 37 7f
        E 5 90 39 71
        E 12 90 3e 7f
        E 0 90 40 7f
        E 1 90 3c 66
        E 20 90 43 43
        E 15 80 40 00
        E 51 90 35 28
        E 49 80 43 00
        E 58 80 35 00
        E 13 80 3c 00
        E 5 80 39 00
        E 2 80 3e 00
        E 6 80 37 00
        E 5610 90 3c 35
        E 15 90 40 48
        E 5 90 43 4b
        E 1022 80 40 00
        E 6 80 43 00
        E 24 80 3c 00
        E 690 90 45 67
        E 20 90 3e 34
        E 0 90 42 34
        E 4 90 41 41
        E 3 80 42 00
        E 916 80 41 00
        E 3 80 45 00
        E 45 80 3e 00
        E 1854 90 46 58
        E 6 90 42 52
        E 47 90 40 2e
        E 0 90 48 53
        E 38 90 41 21
        E 608 80 41 00
        E 67 80 46 00
        E 0 80 42 00
        E 9 80 40 00
        E 5 80 48 00
        E 1529 90 46 57
        E 3 90 44 48
        E 354 90 40 06
        E 163 90 48 01
        E 180 80 48 00
        E 2 80 44 00
        E 3 80 46 00
        E 46 80 40 00
        E 1153 90 40 01
        E 589 90 44 49
        E 23 90 47 67
        E 690 80 40 00
        E 19 80 44 00
        E 13 80 47 00
        E 352 90 44 58
        E 31 90 40 32
        E 5 90 47 53
        E 268 80 47 00
        E 11 80 44 00
        E 25 80 40 00
        E 2395 90 40 6b
        E 2 90 43 71
        E 3 90 3c 75
        E 768 80 40 00
        E 54 80 43 00
        E 44 80 3c 00
        E 710 90 3e 4b
        E 6 90 3c 4e
        E 6 90 41 36
        E 0 90 45 46
        E 111 80 3c 00
        E 1029 80 41 00
        E 33 80 45 00
        E 3 80 3e 00
        E 1422 90 43 4c
        E 33 80 43 00
        E 227 90 3c 63
        E 22 90 43 4b
        E 35 80 43 00
        E 22 80 3c 00
        E 190 90 3c 4d
        E 5 90 43 43
        E 6 90 40 3d
        E 37 80 40 00
        E 6 80 3c 00
        E 4 80 43 00
        E 167 90 43 5a
        E 13 90 40 52
        E 50 80 40 00
        E 16 80 43 00
        E 183 90 43 63
        E 16 90 40 5e
        E 51 80 40 00
        E 17 80 43 00
        E 163 90 43 56
        E 68 80 43 00
        E 158 90 43 60
        E 10 90 3c 4b
        E 7 90 40 55
        E 45 80 40 00
        E 19 80 3c 00
        E 5 80 43 00
        E 162 90 43 57
        E 11 90 3c 39
        E 0 90 40 4f
        E 48 80 40 00
        E 9 80 3c 00
        E 3 80 43 00
        E 169 90 43 59
        E 9 90 3c 4b
        E 5 90 40 4f
        E 48 80 40 00
        E 15 80 3c 00
        E 4 80 43 00
        E 160 90 43 5d
        E 9 90 3c 4d
        E 3 90 40 5b
        E 56 80 40 00
        E 8 80 3c 00
        E 10 80 43 00
        E 165 90 43 5e
        E 15 90 40 5e
        E 4 90 3c 41
        E 52 80 3c 00
        E 0 80 40 00
        E 16 80 43 00
        E 198 90 42 7d
        E 7 90 45 6b
        E 2 90 3e 63
        E 52 80 42 00
        E 18 80 45 00
        E 13 80 3e 00
        E 154 90 3c 5d
        E 5 90 3e 54
        E 13 90 43 52
        E 44 80 43 00
        E 9 80 3e 00
        E 6 80 3c 00
        E 451 90 40 6a
        E 9 90 3c 50
        E 42 80 40 00
        E 4 80 3c 00
        E 190 90 43 46
        E 4 90 40 45
        E 47 80 40 00
        E 12 80 43 00
        E 1901 90 3c 71
        E 5 90 40 6d
        E 3 90 43 66
        E 66 80 43 00
        E 0 80 40 00
        E 8 80 3c 00
        E 137 90 3c 67
        E 6 90 43 63
        E 1 90 40 5f
        E 65 80 43 00
        E 1 80 40 00
        E 7 80 3c 00
        E 168 90 3c 66
        E 4 90 40 5e
        E 4 90 43 59
        E 67 80 43 00
        E 2 80 40 00
        E 3 80 3c 00
        E 133 90 3c 62
        E 3 90 40 5e
        E 1 90 43 5f
        E 81 80 3c 00
        E 0 80 40 00
        E 3 80 43 00
        E 170 90 3c 63
        E 3 90 40 5c
        E 8 90 43 54
        E 66 80 43 00
        E 1 80 40 00
        E 1 80 3c 00
        E 149 90 3c 63
        E 0 90 40 63
        E 4 90 43 5e
        E 79 80 43 00
        E 2 80 3c 00
        E 3 80 40 00
        E 649 90 41 4b
        E 5 90 3e 37
        E 5 90 45 3c
        E 42 80 45 00
        E 3 80 3e 00
        E 0 80 41 00
        E 477 90 3e 66
        E 11 90 41 48
        E 62 80 41 00
        E 15 80 3e 00
        E 371 90 41 71
        E 2 90 3e 6a
        E 5 90 45 64
        E 103 80 3e 00
        E 2 80 41 00
        E 7 80 45 00
        E 354 90 3e 58
        E 0 90 41 5b
        E 2 90 45 58
        E 107 80 45 00
        E 1 80 3e 00
        E 0 80 41 00
        E 361 90 3c 6a
        E 10 90 40 56
        E 1 90 43 57
        E 73 80 40 00
        E 3 80 43 00
        E 3 80 3c 00
        E 135 90 3c 5c
        E 6 90 40 59
        E 6 90 43 4a
        E 82 80 43 00
        E 3 80 3c 00
        E 1 80 40 00
        E 143 90 40 55
        E 3 90 3c 53
        E 7 90 43 43
        E 85 80 43 00
        E 5 80 40 00
        E 1 80 3c 00
        E 139 90 3c 50
        E 0 90 40 50
        E 10 90 43 3d
        E 83 80 40 00
        E 1 80 3c 00
        E 0 80 43 00
        E 148 90 43 4b
        E 3 90 40 52
        E 2 90 3c 4e
        E 95 80 3c 00
        E 4 80 40 00
        E 16 80 43 00
        E 118 90 43 4b
        E 7 90 40 58
        E 5 90 3c 53
        E 97 80 3c 00
        E 4 80 40 00
        E 12 80 43 00
        E 570 90 41 63
        E 2 90 45 60
        E 15 90 3e 3e
        E 86 80 3e 00
        E 8 80 41 00
        E 4 80 45 00
        E 314 90 3e 4a
        E 3 90 45 3c
        E 2 90 41 52
        E 129 80 3e 00
        E 2 80 41 00
        E 6 80 45 00
        E 351 90 47 63
        E 12 90 43 54
        E 10 90 40 41
        E 97 80 40 00
        E 2 80 43 00
        E 26 80 47 00
        E 364 90 47 28
        E 13 90 43 37
        E 8 90 40 26
        E 108 80 40 00
        E 9 80 43 00
        E 7 80 47 00
        E 363 90 3e 63
        E 92 80 3e 00
        E 131 90 3e 57
        E 10 90 41 55
        E 3 90 45 40
        E 85 80 41 00
        E 1 80 45 00
        E 2 80 3e 00
        E 143 90 41 4f
        E 8 90 3e 40
        E 2 90 45 3e
        E 93 80 3e 00
        E 2 80 41 00
        E 1 80 45 00
        E 143 90 3e 4f
        E 1 90 41 53
        E 9 90 45 3a
        E 91 80 45 00
        E 3 80 3e 00
        E 0 80 41 00
        E 137 90 3e 55
        E 1 90 41 56
        E 5 90 45 42
        E 90 80 45 00
        E 0 80 3e 00
        E 2 80 41 00
        E 160 90 43 4d
        E 3 90 40 4b
        E 2 90 47 42
        E 87 80 47 00
        E 1 80 40 00
        E 1 80 43 00
        E 137 90 43 5a
        E 3 90 40 4b
        E 11 90 47 48
        E 79 80 40 00
        E 2 80 47 00
        E 1 80 43 00
        E 153 90 40 2a
        E 47 80 40 00
        E 473 90 41 5e
        E 10 90 45 51
        E 5 90 48 31
        E 69 80 45 00
        E 7 80 41 00
        E 17 80 48 00
        E 110 90 41 3b
        E 8 90 48 2a
        E 4 90 45 55
        E 92 80 45 00
        E 6 80 41 00
        E 8 80 48 00
        E 131 90 41 3d
        E 2 90 45 55
        E 2 90 48 2e
        E 87 80 45 00
        E 9 80 41 00
        E 2 80 48 00
        E 138 90 41 43
        E 1 90 45 63
        E 9 90 48 3f
        E 96 80 41 00
        E 2 80 48 00
        E 6 80 45 00
        E 135 90 45 52
        E 1 90 41 4e
        E 10 90 48 44
        E 100 80 41 00
        E 2 80 45 00
        E 9 80 48 00
        E 108 90 48 30
        E 3 90 45 4c
        E 3 90 41 42
        E 102 80 45 00
        E 5 80 41 00
        E 2 80 48 00
        E 192 90 40 59
        E 2 90 43 59
        E 2 90 47 58
        E 70 80 40 00
        E 0 80 43 00
        E 6 80 47 00
        E 652 90 47 25
        E 60 80 47 00
        E 183 90 43 48
        E 7 90 47 30
        E 14 90 40 26
        E 46 80 40 00
        E 9 80 43 00
        E 3 80 47 00
        E 165 90 43 2f
        E 15 90 47 21
        E 60 80 47 00
        E 3 80 43 00
        E 170 90 40 51
        E 14 90 43 24
        E 78 80 43 00
        E 2 80 40 00
        E 140 90 43 56
        E 11 90 40 30
        E 2 90 47 41
        E 103 80 40 00
        E 2 80 47 00
        E 2 80 43 00
        E 127 90 43 50
        E 9 90 47 43
        E 2 90 40 37
        E 110 80 40 00
        E 7 80 43 00
        E 5 80 47 00
        E 137 90 43 49
        E 0 90 40 46
        E 9 90 47 31
        E 112 80 40 00
        E 3 80 43 00
        E 5 80 47 00
        E 382 90 41 28
        E 0 90 45 46
        E 8 90 47 26
        E 2 90 43 32
        E 107 80 43 00
        E 9 80 45 00
        E 12 80 47 00
        E 2 80 41 00
        E 342 90 41 44
        E 21 90 45 52
        E 10 90 47 2d
        E 0 90 43 5a
        E 115 80 47 00
        E 2 80 43 00
        E 15 80 45 00
        E 12 80 41 00
        E 302 90 48 3e
        E 11 90 41 28
        E 10 90 45 53
        E 6 90 47 53
        E 3 90 43 27
        E 137 80 47 00
        E 108 80 43 00
        E 22 80 41 00
        E 15 80 45 00
        E 29 80 48 00
        E 85 90 48 25
        E 7 90 45 59
        E 16 90 41 43
        E 31 90 43 24
        E 238 80 43 00
        E 363 80 45 00
        E 10 80 41 00
        E 2 80 48 00
        E 364 90 40 60
        E 10 90 43 59
        E 6 90 47 4d
        E 93 80 47 00
        E 1 80 40 00
        E 0 80 43 00
        E 146 90 43 45
        E 8 90 40 35
        E 5 90 41 28
        E 44 80 41 00
        E 2 80 40 00
        E 1 80 43 00
        E 178 90 40 2f
        E 17 90 43 26
        E 41 80 43 00
        E 4 80 40 00
        E 381 90 43 54
        E 1 90 40 59
        E 11 90 47 4d
        E 91 80 40 00
        E 1 80 47 00
        E 2 80 43 00
        E 131 90 43 54
        E 1 90 40 59
        E 8 90 47 4e
        E 97 80 40 00
        E 4 80 43 00
        E 1 80 47 00
        E 136 90 40 52
        E 0 90 43 52
        E 8 90 47 44
        E 119 80 43 00
        E 0 80 47 00
        E 1 80 40 00
        E 422 90 39 57
        E 1 90 37 43
        E 37 90 35 1f
        E 24 90 34 1b
        E 317 80 39 00
        E 19 80 37 00
        E 2 80 35 00
        E 17 80 34 00
        E 62 90 3b 57
        E 3 90 3c 55
        E 2 90 39 55
        E 3 90 40 49
        E 6 90 3e 44
        E 170 80 3e 00
        E 77 80 39 00
        E 12 80 40 00
        E 24 80 3b 00
        E 30 80 3c 00
        E 207 90 39 1a
        E 5 90 37 17
        E 181 80 37 00
        E 2 80 39 00
        E 840 90 3c 3e
        E 26 90 41 25
        E 5 90 3e 2b
        E 7 90 40 27
        E 40 80 40 00
        E 2 80 3e 00
        E 16 80 3c 00
        E 1 80 41 00
        E 125 90 3c 4f
        E 12 90 3e 46
        E 3 90 41 2c
        E 3 90 40 3a
        E 58 80 40 00
        E 4 80 3e 00
        E 11 80 3c 00
        E 1 80 41 00
        E 146 90 3c 4c
        E 34 90 41 1e
        E 59 80 3c 00
        E 6 80 41 00
        E 137 90 40 4c
        E 5 90 3c 3e
        E 98 80 3c 00
        E 6 80 40 00
        E 150 90 3c 4e
        E 21 90 40 28
        E 49 80 40 00
        E 12 80 3c 00
        E 149 90 3c 4e
        E 2 90 40 50
        E 91 80 3c 00
        E 5 80 40 00
        E 149 90 40 58
        E 16 90 3c 47
        E 94 80 3c 00
        E 17 80 40 00
        E 121 90 40 35
        E 25 90 3c 27
        E 59 80 3c 00
        E 18 80 40 00
        E 123 90 40 53
        E 27 90 3c 32
        E 6 90 43 52
        E 64 80 43 00
        E 13 80 3c 00
        E 12 80 40 00
        E 162 90 3c 3d
        E 1 90 40 32
        E 58 80 40 00
        E 5 80 3c 00
        E 132 90 41 5c
        E 2 90 3c 30
        E 7 90 40 42
        E 79 80 40 00
        E 2 80 3c 00
        E 29 80 41 00
        E 120 90 41 28
        E 23 90 40 2e
        E 86 80 40 00
        E 20 80 41 00
        E 99 90 3c 4c
        E 1 90 40 2c
        E 0 90 41 28
        E 117 80 3c 00
        E 15 80 40 00
        E 10 80 41 00
        E 94 90 40 45
        E 3 90 41 34
        E 2 90 3c 47
        E 114 80 3c 00
        E 7 80 40 00
        E 3 80 41 00
        E 102 90 40 4a
        E 3 90 3c 4d
        E 4 90 41 33
        E 106 80 3c 00
        E 7 80 40 00
        E 4 80 41 00
        E 121 90 40 45
        E 1 90 3c 4b
        E 11 90 41 28
        E 79 80 41 00
        E 6 80 40 00
        E 3 80 3c 00
        E 172 90 3e 25
        E 3 90 3c 25
        E 43 80 3c 00
        E 1 80 3e 00
        E 162 90 40 49
        E 19 90 43 28
        E 5 90 3c 25
        E 52 80 3c 00
        E 10 80 43 00
        E 3 80 40 00
        E 120 90 40 56
        E 8 90 43 50
        E 15 90 3c 49
        E 8 90 3e 32
        E 75 80 3e 00
        E 5 80 3c 00
        E 21 80 40 00
        E 10 80 43 00
        E 113 90 40 53
        E 6 90 43 3d
        E 10 90 3c 46
        E 107 80 3c 00
        E 6 80 40 00
        E 5 80 43 00
        E 97 90 40 47
        E 2 90 3c 49
        E 8 90 43 2f
        E 105 80 3c 00
        E 4 80 40 00
        E 1 80 43 00
        E 104 90 40 51
        E 1 90 3c 53
        E 12 90 43 3b
        E 101 80 43 00
        E 3 80 40 00
        E 8 80 3c 00
        E 117 90 40 49
        E 13 90 43 38
        E 1 90 3c 30
        E 98 80 43 00
        E 4 80 3c 00
        E 0 80 40 00
        E 357 90 41 5a
        E 2 90 3e 56
        E 112 80 3e 00
        E 6 80 41 00
        E 121 90 41 4e
        E 2 90 3e 54
        E 12 90 45 4a
        E 109 80 3e 00
        E 7 80 45 00
        E 4 80 41 00
        E 91 90 41 50
        E 6 90 45 52
        E 1 90 3e 55
        E 124 80 3e 00
        E 7 80 41 00
        E 6 80 45 00
        E 95 90 41 52
        E 3 90 3e 58
        E 4 90 45 42
        E 120 80 3e 00
        E 3 80 41 00
        E 1 80 45 00
        E 102 90 41 4e
        E 4 90 3e 42
        E 2 90 45 3e
        E 104 80 3e 00
        E 5 80 41 00
        E 6 80 45 00
        E 117 90 41 3f
        E 6 90 3e 33
        E 0 90 45 28
        E 101 80 3e 00
        E 1 80 41 00
        E 3 80 45 00
        E 104 90 3e 44
        E 2 90 41 42
        E 10 90 45 2a
        E 88 80 45 00
        E 2 80 3e 00
        E 0 80 41 00
        E 609 90 40 52
        E 6 90 43 4b
        E 110 80 43 00
        E 8 80 40 00
        E 156 90 40 23
        E 18 90 45 38
        E 71 80 45 00
        E 1 80 40 00
        E 126 90 40 41
        E 23 90 43 2c
        E 1 90 45 3a
        E 82 80 43 00
        E 18 80 40 00
        E 13 80 45 00
        E 100 90 40 4c
        E 3 90 45 3d
        E 26 90 43 34
        E 95 80 43 00
        E 12 80 40 00
        E 25 80 45 00
        E 82 90 45 28
        E 6 90 40 52
        E 6 90 43 55
        E 126 80 40 00
        E 6 80 43 00
        E 20 80 45 00
        E 89 90 45 35
        E 3 90 40 5a
        E 1 90 43 4f
        E 112 80 40 00
        E 5 80 43 00
        E 14 80 45 00
        E 98 90 43 4f
        E 0 90 45 44
        E 1 90 40 5f
        E 119 80 40 00
        E 7 80 43 00
        E 3 80 45 00
        E 109 90 35 6b
        E 1 90 37 61
        E 1 90 34 55
        E 28 90 39 27
        E 154 80 34 00
        E 3 80 35 00
        E 2 80 37 00
        E 1 80 39 00
        E 72 90 45 71
        E 1 90 40 77
        E 6 90 43 63
        E 6 90 41 60
        E 87 80 41 00
        E 10 80 40 00
        E 0 80 43 00
        E 8 80 45 00
        E 123 90 35 76
        E 1 90 37 7d
        E 2 90 39 67
        E 171 80 39 00
        E 6 80 37 00
        E 2 80 35 00
        E 47 90 45 60
        E 3 90 40 64
        E 7 90 43 48
        E 16 90 41 5a
        E 85 80 41 00
        E 26 80 40 00
        E 12 80 43 00
        E 0 80 45 00
        E 117 90 35 72
        E 0 90 37 7f
        E 0 90 39 6e
        E 12 90 34 46
        E 136 80 34 00
        E 40 80 35 00
        E 19 80 37 00
        E 5 80 39 00
        E 19 90 43 6f
        E 2 90 45 66
        E 1 90 40 69
        E 168 80 40 00
        E 8 80 45 00
        E 11 80 43 00
        E 46 90 35 79
        E 1 90 37 7f
        E 4 90 39 71
        E 7 90 34 42
        E 231 90 45 7b
        E 3 90 3f 73
        E 5 90 3c 61
        E 1 90 41 66
        E 2 90 43 64
        E 25 80 43 00
        E 25 90 40 15
        E 37 90 43 1b
        E 159 80 3f 00
        E 39 80 34 00
        E 0 80 35 00
        E 12 80 37 00
        E 9 80 39 00
        E 30 80 3c 00
        E 16 80 43 00
        E 18 80 41 00
        E 14 80 45 00
        E 23 80 40 00
        E 1114 90 39 23
        E 14 90 37 0a
        E 37 90 3b 22
        E 3 90 3e 4c
        E 9 90 41 42
        E 2 90 40 4d
        E 101 90 3c 29
        E 31 80 37 00
        E 4 80 41 00
        E 6 80 40 00
        E 69 80 3e 00
        E 19 80 39 00
        E 54 80 3c 00
        E 36 80 3b 00
        E 7 90 37 50
        E 8 90 3e 59
        E 15 90 40 3f
        E 0 90 41 39
        E 10 90 43 25
        E 13 90 39 47
        E 9 90 35 14
        E 86 80 43 00
        E 41 90 3c 3a
        E 3 80 41 00
        E 1 90 3b 4b
        E 18 80 40 00
        E 10 80 35 00
        E 25 80 37 00
        E 24 80 39 00
        E 54 80 3e 00
        E 19 80 3c 00
        E 54 80 3b 00
        E 41 90 37 4a
        E 14 90 3e 3c
        E 14 90 40 1e
        E 14 90 39 3b
        E 62 90 3c 53
        E 21 90 3b 4e
        E 7 80 40 00
        E 67 80 37 00
        E 17 80 3e 00
        E 4 80 3c 00
        E 17 80 39 00
        E 34 80 3b 00
        E 6540 90 3b 0a
        E 336 90 3e 13
        E 237 90 39 51
        E 44 80 3b 00
        E 0 80 3e 00
        E 262 80 39 00
        E 515 90 3e 11
        E 136 90 3b 11
        E 252 90 39 24
        E 275 80 3e 00
        E 4 80 3b 00
        E 72 80 39 00
        E 633 90 3b 0c
        E 90 90 3e 0a
        E 179 90 39 25
        E 272 80 3b 00
        E 105 80 3e 00
        E 82 80 39 00
        E 619 90 3b 14
        E 289 90 39 26
        E 253 80 3b 00
        E 31 90 3e 16
        E 151 80 39 00
        E 239 80 3e 00
        E 227 90 3b 2b
        E 328 90 39 3c
        E 266 80 3b 00
        E 141 80 39 00
        E 464 90 3e 17
        E 229 90 3b 21
        E 92 90 39 4a
        E 99 80 3e 00
        E 129 80 3b 00
        E 47 80 39 00
        E 361353 b0 7b 00
        CCINTERP 32
        CHASE_CC_TAKEOFFS 1
        GUID {5B7B44E1-0FE1-49A5-81FB-D60CF2761AED}
        IGNTEMPO 0 120 4 4
        SRCCOLOR 31
        VELLANE -1 100 0
      >
      TAKE NULL
    >
  >
>
